<svg id="final_svg" xmlns="http://www.w3.org/2000/svg" xmlns:xlink="http://www.w3.org/1999/xlink" viewBox="919.4000244140625 326.227294921875 299.25 394.6279296875">
      <style type="text/css">.st0{fill:url(#SVGID_1_);}</style>
    <metadata>
              <sfw>
                      <slices></slices>
            <slicesourcebounds bottomleftorigin="true" height="315" width="315" x="0" y="0.000001"></slicesourcebounds>
                  </sfw>
          </metadata>
    <g id="color_index_g" transform="translate(919.4, 326.2273100347501) scale(0.95)" opacity="0.88">
              <linearGradient id="SVGID_1_" gradientUnits="userSpaceOnUse" x1="415.2428284" y1="3.8442159" x2="-28.2909393" y2="269.5235901" gradientTransform="matrix(1 0 0 -1 0 315.276001)">
                      <stop offset="0.2569" style="stop-color:#c15c08"></stop>
            <stop offset="0.7916" style="stop-color:#0d5fb2"></stop>
                  </linearGradient>
        <path class="st0" d="M262.5809937,39.3709984c-15.3659973-11.9820023-33.9369965-19.2420025-55.4799957-18.9040012		c-45.7830048,0.7169991-83.723999,38.8840027-83.723999,84.7180023c0,5.9179993,0.6169968,11.836998,1.8330002,17.5910034		l18.9480057,75.1849976l0.227005,0.8339996c1.0410004,3.5529938,1.5690002,7.2599945,1.5690002,11.0189972		c0,21.5650024-17.5440063,39.1090088-39.1090012,39.1090088c-3.2870026,0-6.5309982-0.4160004-9.6610031-1.2149963		c-6.5299988-1.6690063-12.4670029-5.1049957-17.3150024-9.7870026C58.7939987,217.5709991,45.6699982,189.0390015,45.6699982,157.5		c0-49.3339996,32.1119995-91.3099976,76.5390015-106.125c15.7850037-25.1210022,42.279007-42.8759995,73.0250092-46.8059998		C183.1410065,1.583999,170.5019989-0.000001,157.5-0.000001C70.6539993-0.000001,0,70.6539993,0,157.5		c0,21.8349915,4.5580001,43.5960083,13.4020004,63.5639954c15.9150009,35.9349976,45.8740005,70.3210144,87.4000015,73.3150024		c22.6689987,1.6340027,45.5370026-6.2120056,62.4729919-21.3460083c1.4929962-1.3340149,2.9389954-2.7200012,4.3439941-4.1650085		c14.848999-15.2770081,24.0039978-36.1159973,24.0039978-59.053009c0-7.9499969-1.1029968-15.8240051-3.2799988-23.4100037		l-18.5289917-73.4540024c-0.5099945-2.5360031-0.7669983-5.1470032-0.7669983-7.7649994		c0-21.5650024,17.5440063-39.1090012,39.1090088-39.1090012c0.2200012,0,0.4400024,0.0019989,0.6589966,0.0049973		c9.8650055,0.1589966,19.2689972,4.1880035,26.3619995,11.0449982		c21.0469971,20.3460007,34.1530151,48.8570023,34.1530151,80.3730087c0,49.3379974-32.1159973,91.3150024-76.5400085,106.1260071		c-15.7870026,25.1239929-42.272995,42.8789978-73.0220032,46.8070068C131.8609924,313.4169922,144.4989929,315,157.5,315		c86.8450012,0,157.5-70.6549988,157.5-157.5C315,115.8069992,296.6799927,65.9609985,262.5809937,39.3709984z"></path>
          </g>
    <g fill="#0d5fb2" id="text_group" transform="translate(963.2367656250001, 635.14518996525)" opacity="1.0">
              <path d="M10.03 85.18L16.54 85.18L16.54 35.20L56.14 85.18L61.51 85.18L61.51 23.58L55.09 23.58L55.09 73.57L15.40 23.58L10.03 23.58ZM133.76 75.15C129.36 78.32 123.99 79.90 117.66 79.90C112.64 79.90 108.15 78.76 104.19 76.56C96.18 72.07 91.34 63.98 91.34 54.38C91.34 49.54 92.49 45.23 94.78 41.27C99.35 33.53 107.80 28.86 117.74 28.86C125.22 28.86 131.47 31.24 136.31 36.08L140.36 31.94C134.99 26.05 126.90 23.06 117.48 23.06C111.23 23.06 105.69 24.38 100.76 27.10C90.90 32.47 84.92 42.50 84.92 54.38C84.92 60.28 86.33 65.65 89.14 70.40C94.78 79.99 105.07 85.71 117.39 85.71C126.10 85.71 134.29 82.90 140.01 77.88L140.01 54.38L133.76 54.38ZM184.18 85.71C199.50 85.71 207.15 78.23 207.15 68.90C207.15 65.12 206.18 62.13 204.25 59.93C202.31 57.73 199.94 56.14 197.21 55C194.39 53.94 190.70 52.89 186.21 51.74C182.42 50.78 179.34 49.90 177.14 49.10C172.57 47.52 169.22 44.70 169.22 39.78C169.22 33.18 174.68 28.60 185.50 28.60C191.14 28.60 197.21 30.27 202.40 33.70L204.60 28.51C199.67 25.08 192.54 23.06 185.50 23.06C170.19 23.06 162.80 30.62 162.80 39.95C162.80 43.74 163.77 46.82 165.79 49.02C167.73 51.22 170.10 52.89 172.83 53.94C175.56 55.09 179.26 56.23 183.92 57.38C187.79 58.34 190.78 59.14 192.98 59.93C197.30 61.51 200.73 64.33 200.73 69.26C200.73 75.68 195.18 80.17 184.18 80.17C180.22 80.17 176.44 79.46 172.74 78.06C169.05 76.74 166.06 74.89 163.86 72.69L161.30 77.70C163.59 80.08 166.85 82.02 171.07 83.51C175.21 85.01 179.61 85.71 184.18 85.71Z"></path>
          </g>
  </svg>